<svg xmlns="http://www.w3.org/2000/svg" version="1.0" width="192.000000pt" height="192.000000pt" viewBox="0 0 192.000000 192.000000" preserveAspectRatio="xMidYMid meet">

<g transform="translate(0.000000,192.000000) scale(0.100000,-0.100000)" fill="#000000" stroke="none">
<path d="M1680 1320 l0 -150 -114 0 -113 0 -14 52 c-20 73 -39 75 -39 4 l0 -56 -181 0 -181 0 5 23 c14 59 19 117 9 117 -17 0 -48 -51 -59 -95 -8 -37 -12 -40 -39 -37 -16 2 -129 6 -251 8 l-221 6 5 92 c6 90 5 93 -16 99 -37 9 -57 -22 -71 -112 -13 -79 -14 -81 -42 -81 -24 0 -28 3 -23 23 11 46 33 212 29 217 -10 10 -38 -18 -46 -46 -7 -23 -38 -181 -38 -191 0 -2 -63 -3 -140 -3 l-140 0 0 -30 0 -30 136 0 c134 0 135 0 128 -22 -17 -55 -36 -87 -78 -130 -25 -26 -46 -53 -46 -59 0 -6 15 -28 33 -49 26 -28 36 -50 41 -90 7 -49 4 -58 -36 -134 -45 -87 -64 -168 -75 -313 -7 -98 8 -133 56 -133 37 0 40 6 84 124 36 96 37 102 37 238 0 82 5 148 11 160 11 20 11 20 23 -3 15 -30 64 -30 84 0 10 15 18 18 30 11 80 -42 110 -52 131 -41 30 17 28 58 -4 73 -26 12 -34 38 -12 38 8 0 22 -9 33 -21 25 -28 67 -49 98 -49 32 0 56 35 63 90 3 22 9 40 14 40 11 0 59 -64 59 -78 0 -7 -15 -12 -35 -12 -39 0 -55 -21 -35 -45 27 -33 115 -4 126 41 5 21 -2 38 -35 82 -23 32 -49 74 -58 94 -18 42 -42 56 -59 34 -6 -9 -14 -47 -18 -85 -10 -115 -23 -125 -87 -66 -23 20 -50 35 -64 35 -32 0 -65 -33 -65 -65 0 -30 -11 -32 -34 -6 -16 18 -16 22 2 78 11 32 23 105 27 162 l7 103 229 -4 c151 -2 232 -7 239 -14 8 -8 3 -29 -20 -80 -35 -78 -37 -127 -5 -132 27 -4 88 -112 78 -138 -4 -11 -35 -72 -70 -136 -61 -114 -63 -120 -63 -191 0 -60 4 -77 20 -95 45 -48 97 -19 162 91 40 68 43 76 43 152 0 44 -2 109 -4 145 -3 36 -1 96 4 133 8 69 8 69 -16 65 -15 -2 -25 -11 -27 -23 -8 -47 -13 -47 -50 6 l-38 54 30 73 30 72 188 0 188 0 0 -135 c0 -125 -1 -135 -19 -135 -10 0 -30 -9 -45 -21 -20 -16 -26 -29 -26 -59 0 -68 54 -94 87 -42 9 15 18 28 19 30 1 2 13 -8 27 -22 32 -32 69 -33 96 -5 15 16 26 20 46 15 16 -4 33 -2 41 5 11 9 17 9 29 -1 8 -7 26 -9 44 -5 24 5 30 2 36 -15 3 -11 19 -27 34 -34 16 -9 34 -32 45 -58 10 -24 21 -50 26 -58 9 -19 39 -25 53 -11 10 10 3 33 -34 116 -6 12 -5 34 1 55 16 55 13 155 -5 170 -30 25 -60 -2 -75 -66 l-13 -59 -14 50 c-10 37 -12 82 -7 168 l6 117 57 0 c65 0 105 17 109 45 3 19 -2 20 -81 17 l-84 -4 -12 143 c-7 79 -15 147 -17 151 -3 5 -14 8 -25 8 -18 0 -19 -8 -19 -150z m-1312 -327 c-4 -76 -5 -150 -2 -165 3 -15 2 -38 -3 -50 -6 -18 -9 -8 -13 42 -4 58 -7 65 -27 68 -19 3 -24 -4 -34 -42 -11 -45 -29 -62 -29 -28 0 9 -12 37 -26 61 l-25 44 35 36 c19 20 39 47 45 61 9 23 10 21 10 -17 1 -51 9 -73 26 -73 17 0 25 23 25 70 0 37 -20 67 -38 56 -5 -3 -4 12 2 34 8 33 14 40 36 40 l25 0 -7 -137z m59 70 c-3 -10 -5 -2 -5 17 0 19 2 27 5 18 2 -10 2 -26 0 -35z m1253 -100 c-1 -136 -2 -145 -15 -115 -20 46 -50 43 -62 -5 -13 -54 -33 -55 -33 0 0 54 -18 74 -51 57 -19 -11 -21 -18 -16 -70 3 -32 2 -61 -1 -64 -3 -4 -16 4 -29 16 -22 21 -23 27 -23 175 l0 153 115 0 115 0 0 -147z m-665 -481 c-33 -60 -72 -105 -85 -97 -6 3 -10 26 -10 51 0 34 12 67 51 142 28 53 54 102 58 107 3 6 7 -27 9 -73 2 -73 0 -88 -23 -130z m-815 -122 c-41 -114 -53 -123 -47 -35 7 107 25 195 50 249 l22 50 3 -90 c2 -78 -1 -99 -28 -174z"/>
<path d="M1601 1034 c-25 -32 -28 -96 -6 -114 20 -17 65 2 66 27 0 10 2 34 3 53 1 19 0 41 -2 48 -7 21 -39 13 -61 -14z"/>
<path d="M1141 866 c-7 -8 -13 -33 -14 -56 -2 -52 18 -70 57 -52 23 10 26 18 26 61 0 35 -4 51 -16 55 -25 10 -41 7 -53 -8z"/>
</g>
</svg>